# xmcd
#
# Track frame offsets:
#	150
#	36442
#	47537
#	71080
#	97820
#	120937
#	138092
#	161480
#	177412
#	199325
#	216920
#	230695
#	248400
#	264402
#	289300
#	300970
#
# Disc length: 4324
#
# Revision: 3
# Processed by: cddbd v1.5.1PL0 Copyright (c) Steve Scherf et al.
# Submitted via: CDex 1.50beta10
# Normalized: r2:TRMNUM
#
DISCID=dc10e210
DTITLE=LIGHTNIN' HOPKINS - THE BEST OF BLUSEVILLE RECORDINGS Vol.2
DYEAR=1994
DGENRE=Blues
TTITLE0=Bluse Is Feeling
TTITLE1=Aint't It Crazy
TTITLE2=IWork Down On The chain Gang
TTITLE3=IWoke Up his Morning
TTITLE4=Short Haired Woman
TTITLE5=The Twister
TTITLE6=Iwas Standing On 75 Highway
TTITLE7=Too Many Drivers
TTITLE8=I'm A Crawling Black Snake
TTITLE9=Rocky Mountain Bluse
TTITLE10=I Mean Goodbye 
TTITLE11=The Howling Wolf
TTITLE12=Black Ghost Bluse
TTITLE13=Lonesome Graveyard
TTITLE14=I Don't Want To Do Nothing To You
TTITLE15=I Was Down On Dowling Street y
EXTD=YEAR: 1994
EXTT0=
EXTT1=
EXTT2=
EXTT3=
EXTT4=
EXTT5=
EXTT6=
EXTT7=
EXTT8=
EXTT9=
EXTT10=
EXTT11=
EXTT12=
EXTT13=
EXTT14=
EXTT15=
PLAYORDER=
